<svg width="40" height="41" viewBox="0 0 40 41" fill="none" xmlns="http://www.w3.org/2000/svg">
<path d="M16.2515 37.9444C16.6012 38.5364 17.1153 39.0301 17.74 39.374C18.3648 39.7178 19.0773 39.8993 19.8032 39.8993C20.529 39.8993 21.2416 39.7178 21.8663 39.374C22.4911 39.0301 23.0052 38.5364 23.3549 37.9444M7.26773 12.6667C7.26773 9.57247 8.58843 6.60501 10.9393 4.41709C13.2901 2.22916 16.4786 1 19.8032 1C23.1278 1 26.3162 2.22916 28.6671 4.41709C31.018 6.60501 32.3387 9.57247 32.3387 12.6667C32.3387 26.2778 38.6064 30.1667 38.6064 30.1667H1C1 30.1667 7.26773 26.2778 7.26773 12.6667Z" stroke="#E2DDFE" stroke-width="2" stroke-linecap="round" stroke-linejoin="round"/>
</svg>
