<svg width="60" height="60" viewBox="0 0 60 60" fill="none" xmlns="http://www.w3.org/2000/svg">
<rect width="60" height="60" rx="30" fill="#6E56CF"/>
<path d="M12.5 12.5786H15.993L20.6387 34.2702C20.8091 35.0646 21.2512 35.7748 21.8887 36.2785C22.5263 36.7821 23.3194 37.0478 24.1317 37.0297H41.2126C42.0075 37.0284 42.7783 36.756 43.3975 36.2575C44.0167 35.7589 44.4473 35.0641 44.6183 34.2877L47.5 21.3111H17.8618M24.6382 45.6749C24.6382 46.6395 23.8563 47.4214 22.8917 47.4214C21.9271 47.4214 21.1452 46.6395 21.1452 45.6749C21.1452 44.7103 21.9271 43.9284 22.8917 43.9284C23.8563 43.9284 24.6382 44.7103 24.6382 45.6749ZM43.8498 45.6749C43.8498 46.6395 43.0679 47.4214 42.1033 47.4214C41.1387 47.4214 40.3568 46.6395 40.3568 45.6749C40.3568 44.7103 41.1387 43.9284 42.1033 43.9284C43.0679 43.9284 43.8498 44.7103 43.8498 45.6749Z" stroke="#E2DDFE" stroke-width="3" stroke-linecap="round" stroke-linejoin="round"/>
</svg>
