<svg width="60" height="60" viewBox="0 0 60 60" fill="none" xmlns="http://www.w3.org/2000/svg">
<rect width="60" height="60" rx="30" fill="#6E56CF"/>
<path d="M30 21.25C31.75 20.27 34.865 17.75 38.75 17.75C41.0171 17.7077 43.2091 18.5632 44.8481 20.1301C46.4871 21.697 47.4404 23.8483 47.5 26.115C47.5 33.5 42.25 47.5 37 47.5C34.8125 47.5 32.625 45.645 30 45.645C27.375 45.645 25.1875 47.5 23 47.5C17.75 47.5 12.5 33.5 12.5 26.115C12.5551 23.8467 13.5069 21.6928 15.1469 20.1249C16.787 18.557 18.9816 17.703 21.25 17.75C25.135 17.75 28.25 20.27 30 21.25ZM30 21.25C30 16 28.25 13.375 26.5 12.5" stroke="#E2DDFE" stroke-width="3" stroke-linecap="round" stroke-linejoin="round"/>
</svg>
