<svg width="60" height="60" viewBox="0 0 60 60" fill="none" xmlns="http://www.w3.org/2000/svg">
<rect width="60" height="60" rx="30" fill="#6E56CF"/>
<path d="M30.7082 31.7798C31.5059 29.9307 32.917 28.4134 34.7034 27.4838C36.4897 26.5542 38.5421 26.2693 40.5141 26.677C42.4862 27.0847 44.2573 28.1602 45.5285 29.722C46.7998 31.2838 47.4935 33.2362 47.4925 35.25C47.4925 42.0155 40.4925 47.5 31.7425 47.5C24.6077 47.5 17.4747 46.065 13.5932 43.1915C12.8477 42.6385 12.489 41.7355 12.5082 40.808C12.699 31.2653 13.5897 12.5 26.4925 12.5C27.8849 12.5 29.2202 13.0531 30.2048 14.0377C31.1894 15.0223 31.7425 16.3576 31.7425 17.75C31.7425 18.6783 31.3737 19.5685 30.7174 20.2249C30.061 20.8813 29.1707 21.25 28.2425 21.25C26.3087 21.25 25.3725 20.473 24.7425 19.5M35.2425 33.5C34.1863 32.7074 32.9645 32.1642 31.6686 31.911C30.3726 31.6578 29.0362 31.7011 27.7594 32.0378C26.4826 32.3746 25.2986 32.9959 24.296 33.8552C23.2935 34.7146 22.4985 35.7897 21.9705 37M26.4295 20.9437C23.0257 22.9597 25.6175 31.75 22.9925 35.25" stroke="#E2DDFE" stroke-width="3" stroke-linecap="round" stroke-linejoin="round"/>
</svg>
