<svg width="90" height="22" viewBox="0 0 90 22" fill="none" xmlns="http://www.w3.org/2000/svg">
<g clip-path="url(#clip0_1_13)">
<path d="M6.75 11L8.25 12.5L11.25 9.5M16.5 11C16.5 15.1421 13.1421 18.5 9 18.5C4.85786 18.5 1.5 15.1421 1.5 11C1.5 6.85786 4.85786 3.5 9 3.5C13.1421 3.5 16.5 6.85786 16.5 11Z" stroke="#E2DDFE" stroke-width="2" stroke-linecap="round" stroke-linejoin="round"/>
</g>
<path d="M25.4382 18V4.90909H30.1044C31.1229 4.90909 31.9666 5.09446 32.6357 5.4652C33.3047 5.83594 33.8054 6.34304 34.1378 6.98651C34.4702 7.62571 34.6364 8.34588 34.6364 9.14702C34.6364 9.95241 34.468 10.6768 34.1314 11.3203C33.799 11.9595 33.2962 12.4666 32.6229 12.8416C31.9538 13.2124 31.1122 13.3977 30.098 13.3977H26.8892V11.723H29.919C30.5625 11.723 31.0845 11.6122 31.4851 11.3906C31.8857 11.1648 32.1797 10.858 32.3672 10.4702C32.5547 10.0824 32.6484 9.64133 32.6484 9.14702C32.6484 8.6527 32.5547 8.21378 32.3672 7.83026C32.1797 7.44673 31.8835 7.14631 31.4787 6.92898C31.0781 6.71165 30.5497 6.60298 29.8935 6.60298H27.4134V18H25.4382ZM38.7097 4.90909V18H36.7985V4.90909H38.7097ZM44.1381 18.2173C43.516 18.2173 42.9535 18.1023 42.4506 17.8722C41.9478 17.6378 41.5494 17.299 41.2553 16.8558C40.9656 16.4126 40.8207 15.8693 40.8207 15.2259C40.8207 14.6719 40.9272 14.2159 41.1403 13.858C41.3533 13.5 41.641 13.2166 42.0032 13.0078C42.3654 12.799 42.7702 12.6413 43.2177 12.5348C43.6651 12.4283 44.1211 12.3473 44.5856 12.2919C45.1737 12.2237 45.6509 12.1683 46.0174 12.1257C46.3839 12.0788 46.6502 12.0043 46.8164 11.902C46.9826 11.7997 47.0657 11.6335 47.0657 11.4034V11.3587C47.0657 10.8004 46.908 10.3679 46.5927 10.0611C46.2816 9.75426 45.8171 9.60085 45.1992 9.60085C44.5558 9.60085 44.0487 9.74361 43.6779 10.0291C43.3114 10.3104 43.0579 10.6236 42.9173 10.9688L41.1211 10.5597C41.3342 9.96307 41.6452 9.48153 42.0543 9.11506C42.4677 8.74432 42.9428 8.47585 43.4798 8.30966C44.0167 8.1392 44.5813 8.05398 45.1737 8.05398C45.5657 8.05398 45.9812 8.10085 46.4201 8.1946C46.8633 8.28409 47.2766 8.45028 47.6602 8.69318C48.0479 8.93608 48.3654 9.28338 48.6126 9.73509C48.8597 10.1825 48.9833 10.7642 48.9833 11.4801V18H47.1168V16.6577H47.0401C46.9165 16.9048 46.7312 17.1477 46.484 17.3864C46.2369 17.625 45.9194 17.8232 45.5316 17.9808C45.1438 18.1385 44.6793 18.2173 44.1381 18.2173ZM44.5536 16.6832C45.082 16.6832 45.5337 16.5788 45.9087 16.37C46.288 16.1612 46.5756 15.8885 46.7717 15.5518C46.9719 15.2109 47.0721 14.8466 47.0721 14.4588V13.1932C47.0039 13.2614 46.8718 13.3253 46.6758 13.3849C46.484 13.4403 46.2646 13.4893 46.0174 13.532C45.7702 13.5703 45.5295 13.6065 45.2951 13.6406C45.0607 13.6705 44.8647 13.696 44.707 13.7173C44.3363 13.7642 43.9975 13.843 43.6907 13.9538C43.3881 14.0646 43.1452 14.2244 42.962 14.4332C42.783 14.6378 42.6935 14.9105 42.6935 15.2514C42.6935 15.7244 42.8683 16.0824 43.2177 16.3253C43.5671 16.5639 44.0124 16.6832 44.5536 16.6832ZM53.4402 12.1705V18H51.5289V8.18182H53.3635V9.77983H53.4849C53.7108 9.25994 54.0645 8.84233 54.546 8.52699C55.0318 8.21165 55.6433 8.05398 56.3805 8.05398C57.0495 8.05398 57.6355 8.1946 58.1383 8.47585C58.6412 8.75284 59.0311 9.16619 59.3081 9.71591C59.5851 10.2656 59.7235 10.9453 59.7235 11.755V18H57.8123V11.9851C57.8123 11.2734 57.627 10.7173 57.2562 10.3168C56.8855 9.91193 56.3762 9.70952 55.7285 9.70952C55.2853 9.70952 54.8912 9.8054 54.546 9.99716C54.2051 10.1889 53.9345 10.4702 53.7342 10.8409C53.5382 11.2074 53.4402 11.6506 53.4402 12.1705ZM64.198 12.1705V18H62.2868V8.18182H64.1213V9.77983H64.2427C64.4686 9.25994 64.8223 8.84233 65.3038 8.52699C65.7896 8.21165 66.4011 8.05398 67.1383 8.05398C67.8074 8.05398 68.3933 8.1946 68.8961 8.47585C69.399 8.75284 69.7889 9.16619 70.0659 9.71591C70.3429 10.2656 70.4814 10.9453 70.4814 11.755V18H68.5701V11.9851C68.5701 11.2734 68.3848 10.7173 68.014 10.3168C67.6433 9.91193 67.1341 9.70952 66.4863 9.70952C66.0431 9.70952 65.649 9.8054 65.3038 9.99716C64.9629 10.1889 64.6923 10.4702 64.492 10.8409C64.296 11.2074 64.198 11.6506 64.198 12.1705ZM77.2761 18.1982C76.3088 18.1982 75.4757 17.9915 74.7768 17.5781C74.0822 17.1605 73.5453 16.5746 73.166 15.8203C72.791 15.0618 72.6035 14.1733 72.6035 13.1548C72.6035 12.1491 72.791 11.2628 73.166 10.4957C73.5453 9.72869 74.0737 9.12997 74.7512 8.69957C75.4331 8.26918 76.2299 8.05398 77.1419 8.05398C77.6958 8.05398 78.2328 8.1456 78.7527 8.32884C79.2725 8.51207 79.7392 8.79972 80.1525 9.19176C80.5659 9.58381 80.8919 10.093 81.1305 10.7195C81.3691 11.3416 81.4885 12.098 81.4885 12.9886V13.6662H73.6838V12.2344H79.6156C79.6156 11.7315 79.5133 11.2862 79.3088 10.8984C79.1042 10.5064 78.8166 10.1974 78.4458 9.97159C78.0794 9.74574 77.649 9.63281 77.1547 9.63281C76.6177 9.63281 76.149 9.76491 75.7484 10.0291C75.3521 10.2891 75.0453 10.63 74.8279 11.0518C74.6149 11.4695 74.5083 11.9233 74.5083 12.4134V13.532C74.5083 14.1882 74.6234 14.7464 74.8535 15.2067C75.0879 15.6669 75.4139 16.0185 75.8315 16.2614C76.2491 16.5 76.737 16.6193 77.2953 16.6193C77.6575 16.6193 77.9877 16.5682 78.286 16.4659C78.5843 16.3594 78.8422 16.2017 79.0595 15.9929C79.2768 15.7841 79.443 15.5263 79.5581 15.2195L81.367 15.5455C81.2221 16.0781 80.9622 16.5447 80.5872 16.9453C80.2164 17.3416 79.7498 17.6506 79.1873 17.8722C78.6291 18.0895 77.992 18.1982 77.2761 18.1982ZM83.609 18V8.18182H85.4563V9.74148H85.5586C85.7376 9.21307 86.0529 8.79758 86.5046 8.49503C86.9606 8.18821 87.4762 8.0348 88.0515 8.0348C88.1708 8.0348 88.3114 8.03906 88.4734 8.04759C88.6396 8.05611 88.7695 8.06676 88.8633 8.07955V9.90767C88.7866 9.88636 88.6502 9.86293 88.4542 9.83736C88.2582 9.80753 88.0621 9.79261 87.8661 9.79261C87.4144 9.79261 87.0117 9.88849 86.658 10.0803C86.3086 10.2678 86.0316 10.5298 85.8271 10.8665C85.6225 11.1989 85.5202 11.5781 85.5202 12.0043V18H83.609Z" fill="#E2DDFE"/>
<defs>
<clipPath id="clip0_1_13">
<rect width="18" height="18" fill="white" transform="translate(0 2)"/>
</clipPath>
</defs>
</svg>
