<svg width="60" height="60" viewBox="0 0 60 60" fill="none" xmlns="http://www.w3.org/2000/svg">
<rect width="60" height="60" rx="30" fill="#6E56CF"/>
<path d="M37 45.75V42.25C37 40.3935 36.2625 38.613 34.9497 37.3003C33.637 35.9875 31.8565 35.25 30 35.25H19.5C17.6435 35.25 15.863 35.9875 14.5503 37.3003C13.2375 38.613 12.5 40.3935 12.5 42.25V45.75M47.5 45.75V42.25C47.4988 40.699 46.9826 39.1924 46.0324 37.9666C45.0822 36.7408 43.7517 35.8652 42.25 35.4775M37 14.4775C38.5057 14.863 39.8403 15.7387 40.7934 16.9665C41.7464 18.1944 42.2637 19.7045 42.2637 21.2588C42.2637 22.813 41.7464 24.3231 40.7934 25.551C39.8403 26.7788 38.5057 27.6545 37 28.04M31.75 21.25C31.75 25.116 28.616 28.25 24.75 28.25C20.884 28.25 17.75 25.116 17.75 21.25C17.75 17.384 20.884 14.25 24.75 14.25C28.616 14.25 31.75 17.384 31.75 21.25Z" stroke="#E2DDFE" stroke-width="3" stroke-linecap="round" stroke-linejoin="round"/>
</svg>
