<svg width="60" height="60" viewBox="0 0 60 60" fill="none" xmlns="http://www.w3.org/2000/svg">
<rect width="60" height="60" rx="30" fill="#6E56CF"/>
<path d="M32.4499 12.5003H19.4999C18.5717 12.5003 17.6815 12.869 17.0251 13.5254C16.3687 14.1818 16 15.072 16 16.0002V44C16 44.9283 16.3687 45.8185 17.0251 46.4749C17.6815 47.1313 18.5717 47.5 19.4999 47.5H40.4998C41.428 47.5 42.3183 47.1313 42.9746 46.4749C43.631 45.8185 43.9998 44.9283 43.9998 44V31.0501M12.5 19.5002H19.4999M12.5 26.5002H19.4999M12.5 33.5001H19.4999M12.5 40.5001H19.4999M46.4112 18.8457C47.1084 18.1486 47.5 17.2031 47.5 16.2172C47.5 15.2314 47.1084 14.2859 46.4112 13.5888C45.7141 12.8916 44.7686 12.5 43.7828 12.5C42.7969 12.5 41.8514 12.8916 41.1543 13.5888L32.3869 22.3597C31.9708 22.7755 31.6662 23.2895 31.5014 23.8542L30.0366 28.8766C29.9927 29.0272 29.9901 29.1868 30.029 29.3388C30.0679 29.4907 30.147 29.6294 30.2579 29.7404C30.3688 29.8513 30.5075 29.9303 30.6595 29.9693C30.8114 30.0082 30.971 30.0056 31.1216 29.9616L36.1441 28.4969C36.7087 28.332 37.2227 28.0275 37.6386 27.6114L46.4112 18.8457Z" stroke="#E2DDFE" stroke-width="3" stroke-linecap="round" stroke-linejoin="round"/>
</svg>
