<svg width="60" height="60" viewBox="0 0 60 60" fill="none" xmlns="http://www.w3.org/2000/svg">
<rect width="60" height="60" rx="30" fill="#6E56CF"/>
<path d="M40.9811 44.0361L37.5172 28.256L44.2526 21.5206C47.1392 18.634 48.1014 14.7852 47.1392 12.8608C45.2148 11.8986 41.366 12.8608 38.4794 15.7474L31.744 22.4828L15.9639 19.0189C15.0017 18.8265 14.232 19.2113 13.8471 19.9811L13.2698 20.9433C12.8849 21.9055 13.0773 22.8677 13.8471 23.445L24.0464 30.1804L20.1976 35.9536H14.4244L12.5 37.878L18.2732 41.7268L22.122 47.5L24.0464 45.5756V39.8024L29.8196 35.9536L36.555 46.1529C37.1323 46.9227 38.0945 47.1151 39.0567 46.7302L40.0189 46.3454C40.7887 45.768 41.1735 44.9983 40.9811 44.0361Z" stroke="#E2DDFE" stroke-width="3" stroke-linecap="round" stroke-linejoin="round"/>
</svg>
