<svg width="60" height="60" viewBox="0 0 60 60" fill="none" xmlns="http://www.w3.org/2000/svg">
<rect width="60" height="60" rx="30" fill="#6E56CF"/>
<path d="M30 31.75H30.0175M37 21.25V17.75C37 16.8217 36.6313 15.9315 35.9749 15.2751C35.3185 14.6187 34.4283 14.25 33.5 14.25H26.5C25.5717 14.25 24.6815 14.6187 24.0251 15.2751C23.3687 15.9315 23 16.8217 23 17.75V21.25M47.5 33.5C42.3074 36.9282 36.2222 38.7558 30 38.7558C23.7778 38.7558 17.6926 36.9282 12.5 33.5M16 21.25H44C45.933 21.25 47.5 22.817 47.5 24.75V42.25C47.5 44.183 45.933 45.75 44 45.75H16C14.067 45.75 12.5 44.183 12.5 42.25V24.75C12.5 22.817 14.067 21.25 16 21.25Z" stroke="#E2DDFE" stroke-width="3" stroke-linecap="round" stroke-linejoin="round"/>
</svg>
