<svg width="96" height="24" viewBox="0 0 96 24" fill="none" xmlns="http://www.w3.org/2000/svg">
<path d="M14 11C14 11.5305 13.7893 12.0392 13.4142 12.4143C13.0392 12.7893 12.5304 13 12 13C11.4696 13 10.9609 12.7893 10.5858 12.4143C10.2107 12.0392 10 11.5305 10 11C10 9.93918 10.4214 8.92177 11.1716 8.17162C11.9217 7.42148 12.9391 7.00005 14 7.00005C15.0609 7.00005 16.0783 7.42148 16.8284 8.17162C17.5786 8.92177 18 9.93918 18 11C18 12.5913 17.3679 14.1175 16.2427 15.2427C15.1174 16.3679 13.5913 17 12 17C10.4087 17 8.88259 16.3679 7.75737 15.2427C6.63215 14.1175 6.00001 12.5913 6.00001 11C6.00001 8.87832 6.84287 6.84349 8.34316 5.34319C9.84345 3.8429 11.8783 3.00005 14 3.00005C16.1217 3.00005 18.1566 3.8429 19.6569 5.34319C21.1572 6.84349 22 8.87832 22 11C22 13.6522 20.9464 16.1958 19.0711 18.0711C17.1957 19.9465 14.6522 21 12 21C9.34785 21 6.80431 19.9465 4.92894 18.0711C3.05358 16.1958 2.00001 13.6522 2.00001 11C1.99633 8.39364 2.84631 5.85774 4.42001 3.78005C4.57324 3.55407 4.77111 3.36186 5.00144 3.21525C5.23177 3.06865 5.48967 2.97075 5.75927 2.9276C6.02887 2.88445 6.30444 2.89696 6.56902 2.96435C6.8336 3.03174 7.08158 3.15259 7.29769 3.31946C7.51379 3.48632 7.69344 3.69566 7.82557 3.93459C7.9577 4.17352 8.0395 4.43697 8.06595 4.70871C8.0924 4.98046 8.06293 5.25474 7.97936 5.51466C7.89579 5.77458 7.75988 6.01464 7.58001 6.22005" stroke="#FAFAFA" stroke-width="2" stroke-linecap="round" stroke-linejoin="round"/>
<path d="M31.4382 19V5.90909H36.1044C37.1229 5.90909 37.9666 6.09446 38.6357 6.4652C39.3047 6.83594 39.8054 7.34304 40.1378 7.98651C40.4702 8.62571 40.6364 9.34588 40.6364 10.147C40.6364 10.9524 40.468 11.6768 40.1314 12.3203C39.799 12.9595 39.2962 13.4666 38.6229 13.8416C37.9538 14.2124 37.1122 14.3977 36.098 14.3977H32.8892V12.723H35.919C36.5625 12.723 37.0845 12.6122 37.4851 12.3906C37.8857 12.1648 38.1797 11.858 38.3672 11.4702C38.5547 11.0824 38.6484 10.6413 38.6484 10.147C38.6484 9.6527 38.5547 9.21378 38.3672 8.83026C38.1797 8.44673 37.8835 8.14631 37.4787 7.92898C37.0781 7.71165 36.5497 7.60298 35.8935 7.60298H33.4134V19H31.4382ZM44.7097 5.90909V19H42.7985V5.90909H44.7097ZM50.1381 19.2173C49.516 19.2173 48.9535 19.1023 48.4506 18.8722C47.9478 18.6378 47.5494 18.299 47.2553 17.8558C46.9656 17.4126 46.8207 16.8693 46.8207 16.2259C46.8207 15.6719 46.9272 15.2159 47.1403 14.858C47.3533 14.5 47.641 14.2166 48.0032 14.0078C48.3654 13.799 48.7702 13.6413 49.2177 13.5348C49.6651 13.4283 50.1211 13.3473 50.5856 13.2919C51.1737 13.2237 51.6509 13.1683 52.0174 13.1257C52.3839 13.0788 52.6502 13.0043 52.8164 12.902C52.9826 12.7997 53.0657 12.6335 53.0657 12.4034V12.3587C53.0657 11.8004 52.908 11.3679 52.5927 11.0611C52.2816 10.7543 51.8171 10.6009 51.1992 10.6009C50.5558 10.6009 50.0487 10.7436 49.6779 11.0291C49.3114 11.3104 49.0579 11.6236 48.9173 11.9688L47.1211 11.5597C47.3342 10.9631 47.6452 10.4815 48.0543 10.1151C48.4677 9.74432 48.9428 9.47585 49.4798 9.30966C50.0167 9.1392 50.5813 9.05398 51.1737 9.05398C51.5657 9.05398 51.9812 9.10085 52.4201 9.1946C52.8633 9.28409 53.2766 9.45028 53.6602 9.69318C54.0479 9.93608 54.3654 10.2834 54.6126 10.7351C54.8597 11.1825 54.9833 11.7642 54.9833 12.4801V19H53.1168V17.6577H53.0401C52.9165 17.9048 52.7312 18.1477 52.484 18.3864C52.2369 18.625 51.9194 18.8232 51.5316 18.9808C51.1438 19.1385 50.6793 19.2173 50.1381 19.2173ZM50.5536 17.6832C51.082 17.6832 51.5337 17.5788 51.9087 17.37C52.288 17.1612 52.5756 16.8885 52.7717 16.5518C52.9719 16.2109 53.0721 15.8466 53.0721 15.4588V14.1932C53.0039 14.2614 52.8718 14.3253 52.6758 14.3849C52.484 14.4403 52.2646 14.4893 52.0174 14.532C51.7702 14.5703 51.5295 14.6065 51.2951 14.6406C51.0607 14.6705 50.8647 14.696 50.707 14.7173C50.3363 14.7642 49.9975 14.843 49.6907 14.9538C49.3881 15.0646 49.1452 15.2244 48.962 15.4332C48.783 15.6378 48.6935 15.9105 48.6935 16.2514C48.6935 16.7244 48.8683 17.0824 49.2177 17.3253C49.5671 17.5639 50.0124 17.6832 50.5536 17.6832ZM59.4402 13.1705V19H57.5289V9.18182H59.3635V10.7798H59.4849C59.7108 10.2599 60.0645 9.84233 60.546 9.52699C61.0318 9.21165 61.6433 9.05398 62.3805 9.05398C63.0495 9.05398 63.6355 9.1946 64.1383 9.47585C64.6412 9.75284 65.0311 10.1662 65.3081 10.7159C65.5851 11.2656 65.7235 11.9453 65.7235 12.755V19H63.8123V12.9851C63.8123 12.2734 63.627 11.7173 63.2562 11.3168C62.8855 10.9119 62.3762 10.7095 61.7285 10.7095C61.2853 10.7095 60.8912 10.8054 60.546 10.9972C60.2051 11.1889 59.9345 11.4702 59.7342 11.8409C59.5382 12.2074 59.4402 12.6506 59.4402 13.1705ZM70.198 13.1705V19H68.2868V9.18182H70.1213V10.7798H70.2427C70.4686 10.2599 70.8223 9.84233 71.3038 9.52699C71.7896 9.21165 72.4011 9.05398 73.1383 9.05398C73.8074 9.05398 74.3933 9.1946 74.8961 9.47585C75.399 9.75284 75.7889 10.1662 76.0659 10.7159C76.3429 11.2656 76.4814 11.9453 76.4814 12.755V19H74.5701V12.9851C74.5701 12.2734 74.3848 11.7173 74.014 11.3168C73.6433 10.9119 73.1341 10.7095 72.4863 10.7095C72.0431 10.7095 71.649 10.8054 71.3038 10.9972C70.9629 11.1889 70.6923 11.4702 70.492 11.8409C70.296 12.2074 70.198 12.6506 70.198 13.1705ZM83.2761 19.1982C82.3088 19.1982 81.4757 18.9915 80.7768 18.5781C80.0822 18.1605 79.5453 17.5746 79.166 16.8203C78.791 16.0618 78.6035 15.1733 78.6035 14.1548C78.6035 13.1491 78.791 12.2628 79.166 11.4957C79.5453 10.7287 80.0737 10.13 80.7512 9.69957C81.4331 9.26918 82.2299 9.05398 83.1419 9.05398C83.6958 9.05398 84.2328 9.1456 84.7527 9.32884C85.2725 9.51207 85.7392 9.79972 86.1525 10.1918C86.5659 10.5838 86.8919 11.093 87.1305 11.7195C87.3691 12.3416 87.4885 13.098 87.4885 13.9886V14.6662H79.6838V13.2344H85.6156C85.6156 12.7315 85.5133 12.2862 85.3088 11.8984C85.1042 11.5064 84.8166 11.1974 84.4458 10.9716C84.0794 10.7457 83.649 10.6328 83.1547 10.6328C82.6177 10.6328 82.149 10.7649 81.7484 11.0291C81.3521 11.2891 81.0453 11.63 80.8279 12.0518C80.6149 12.4695 80.5083 12.9233 80.5083 13.4134V14.532C80.5083 15.1882 80.6234 15.7464 80.8535 16.2067C81.0879 16.6669 81.4139 17.0185 81.8315 17.2614C82.2491 17.5 82.737 17.6193 83.2953 17.6193C83.6575 17.6193 83.9877 17.5682 84.286 17.4659C84.5843 17.3594 84.8422 17.2017 85.0595 16.9929C85.2768 16.7841 85.443 16.5263 85.5581 16.2195L87.367 16.5455C87.2221 17.0781 86.9622 17.5447 86.5872 17.9453C86.2164 18.3416 85.7498 18.6506 85.1873 18.8722C84.6291 19.0895 83.992 19.1982 83.2761 19.1982ZM89.609 19V9.18182H91.4563V10.7415H91.5586C91.7376 10.2131 92.0529 9.79758 92.5046 9.49503C92.9606 9.18821 93.4762 9.0348 94.0515 9.0348C94.1708 9.0348 94.3114 9.03906 94.4734 9.04759C94.6396 9.05611 94.7695 9.06676 94.8633 9.07955V10.9077C94.7866 10.8864 94.6502 10.8629 94.4542 10.8374C94.2582 10.8075 94.0621 10.7926 93.8661 10.7926C93.4144 10.7926 93.0117 10.8885 92.658 11.0803C92.3086 11.2678 92.0316 11.5298 91.8271 11.8665C91.6225 12.1989 91.5202 12.5781 91.5202 13.0043V19H89.609Z" fill="#E2DDFE"/>
</svg>
